<svg width="377" height="122" viewBox="0 0 377 122" fill="none" xmlns="http://www.w3.org/2000/svg">
<path d="M368 122L376.379 100.48L353.553 103.983L368 122ZM362.921 88.9052L360.944 89.2086L362.921 88.9052ZM287.725 75.8051L288.862 74.1598L287.725 75.8051ZM1.55486 43.1193L122.891 8.08169L121.781 4.2387L0.445139 39.2763L1.55486 43.1193ZM205.796 21.6146L286.588 77.4504L288.862 74.1598L208.07 18.324L205.796 21.6146ZM360.944 89.2086L363.293 104.512L367.246 103.905L364.898 88.6018L360.944 89.2086ZM321.229 75.1429C335.339 62.3164 358.051 70.3601 360.944 89.2086L364.898 88.6018C361.521 66.6 335.01 57.2107 318.538 72.183L321.229 75.1429ZM286.588 77.4504C297.266 84.8304 311.623 83.8741 321.229 75.1429L318.538 72.183C310.309 79.6628 298.01 80.4821 288.862 74.1598L286.588 77.4504ZM122.891 8.08169C151.156 -0.0804208 181.593 4.88792 205.796 21.6146L208.07 18.324C182.879 0.914578 151.2 -4.25655 121.781 4.2387L122.891 8.08169Z" fill="#EEB45E"/>
</svg>
