<?xml version="1.0" standalone="no"?>
<svg viewBox="0 0 200 200" xmlns="http://www.w3.org/2000/svg">
  <path fill="#F1C6B8" d="M34.5,-61.3C39.7,-50.4,35.4,-32.3,40.9,-19C46.3,-5.8,61.6,2.6,67.5,14.6C73.5,26.6,70.1,42.2,60.6,51.5C51,60.8,35.3,63.8,20.2,67.8C5.1,71.8,-9.5,76.8,-24.4,75.8C-39.3,74.7,-54.5,67.6,-64.9,56C-75.3,44.4,-80.9,28.4,-79.9,13.5C-78.9,-1.4,-71.3,-15.3,-65.8,-31.1C-60.2,-47,-56.7,-64.9,-46.1,-73.2C-35.5,-81.6,-17.7,-80.5,-1.5,-78.1C14.7,-75.7,29.4,-72.1,34.5,-61.3Z" transform="translate(100 100)" />
</svg>
